<svg width="229" height="151" viewBox="0 0 229 151" fill="none" xmlns="http://www.w3.org/2000/svg">
<path d="M105.014 49.8112C101.654 48.9802 97.2095 47.5192 93.835 46.325C92.7846 45.9533 93.4359 45.6846 92.7085 45.4092C91.2831 44.8717 89.8646 44.729 88.4616 44.1804C87.9948 43.9961 88.7571 43.4921 88.2629 43.3138C85.5608 42.3443 82.887 41.8881 80.0952 41.1075C70.7884 38.5606 61.0053 36.0934 52.2022 35.1784C48.9168 34.9163 45.066 36.0537 41.3675 37.9157C37.5114 39.8139 32.6677 42.6953 29.3004 46.0919C28.9081 46.4867 29.5494 46.7035 29.5034 46.8101C28.7871 48.4673 28.3883 47.2219 27.4873 47.8484C23.9158 50.3525 20.5394 53.911 18.0271 57.2769C16.9692 58.7059 19.0097 58.0718 17.3625 59.0457C17.2498 59.1142 17.0478 58.3694 16.6889 58.7059C15.8664 59.4752 14.6719 61.1947 14.1164 61.8619C13.1513 63.0071 12.9268 63.3183 12.2336 64.3026C12.1917 64.3623 12.149 64.4259 12.1055 64.4943C11.3993 65.514 10.8405 67.1767 11.3916 68.9941C11.5082 69.3638 12.0179 68.7357 12.2651 69.2839C12.4881 69.8219 13.0447 71.4066 13.1974 72.0162C13.3276 72.6213 12.7679 72.6237 12.7133 72.7732C12.2531 74.0764 14.6326 75.2734 14.8201 75.4447C15.7612 76.5062 16.6897 77.5427 17.5427 78.4063C17.4911 78.3955 18.083 78.8116 18.7305 79.0876C19.3979 79.3888 20.1796 79.6732 20.997 79.9315C22.65 80.4504 24.4408 80.8736 26.3254 81.1655C30.2903 81.7718 34.6873 81.9879 38.5766 82.4389C43.215 82.9744 47.1408 83.7212 51.6902 84.1756C52.17 84.2244 51.6929 83.4107 52.2804 83.4691C52.5056 83.4916 52.7313 83.5145 52.9573 83.5378C54.7873 83.8004 56.4951 83.7907 59.223 85.3077C59.9076 85.7368 60.7328 86.386 61.3799 87.4446C62.0336 88.4876 62.2784 89.8031 62.2413 90.7369C62.1436 92.6434 61.6291 93.5878 61.2733 94.4712C60.1841 96.9018 59.1449 99.3586 58.1558 101.837C57.9349 102.393 57.5212 101.465 57.2621 102.013C55.6386 105.305 53.2648 111.044 56.0022 113.444C55.7171 115.373 55.5505 117.628 55.3078 119.56C55.2451 119.897 55.1922 120.227 55.1421 120.554C55.0264 121.704 54.023 120.833 54.7708 122.152C54.9542 122.44 55.3893 121.82 55.6177 122.241C56.5709 123.977 58.0077 126.053 59.9342 127.491C60.3248 127.78 60.6269 127.282 60.7948 127.303C62.1572 127.483 62.7199 129.783 63.003 130.15C63.8994 131.338 64.8361 132.262 65.8027 133.099C66.7745 133.949 68.0141 134.537 69.4854 135.162C70.1043 135.419 69.6654 134.422 70.2528 134.631C73.3114 135.703 76.8574 136.476 80.2549 137.272C81.0188 137.45 80.2221 138 80.5861 138.117C82.1903 138.618 82.6908 137.437 84.237 137.842C84.5671 137.925 84.3318 138.462 84.388 138.528C85.2699 139.562 86.2086 138.266 86.4553 138.252C89.5871 138.037 91.547 139.506 94.6133 139.33C94.9783 139.306 94.1607 138.601 95.1834 138.576C102.001 138.396 109.221 138.188 116.05 138.108C117.105 138.094 116.408 138.69 116.477 138.749C117.682 139.653 118.214 138.228 118.567 138.14C119.497 137.913 120.443 137.863 121.306 137.82C122.665 137.778 124.009 137.389 124.395 136.004C129.439 133.82 131.816 128.212 137.271 122.754C138.268 121.829 140.263 121.484 141.399 121.858C142.581 122.173 143.302 122.658 143.966 123.112C145.261 124.041 146.216 124.991 147.152 125.94C149.004 127.85 150.656 129.798 152.284 131.789C152.378 131.902 151.726 132.207 151.916 132.43C154.204 135.102 154.443 133.89 156.987 134.47C157.616 134.606 157.926 136.916 157.98 137.107C158.14 137.792 157.046 138.167 157.137 138.352C157.458 138.966 157.982 138.886 158.591 138.665C159.466 138.331 160.447 137.667 161.327 138.255C161.373 138.292 160.835 138.664 160.932 138.801C161.248 139.236 161.79 139.279 162.119 139.693C162.858 140.618 162.677 142.339 164.752 142.051C165.009 141.992 165.247 140.164 166.835 140.647C167.462 140.886 170.474 141.229 171.356 141.328C172.225 141.471 171.616 142.059 171.676 142.087C174.101 142.889 173.194 143.208 174.526 144.336C175.903 145.425 175.335 142.647 175.808 142.295C176.279 141.948 178.163 142.387 178.651 142.543C179.135 142.706 178.624 143.165 179.045 143.236C181.85 143.667 180.005 141.681 180.8 141.105C182.563 139.807 184.435 141.266 186.295 141.387C186.404 141.395 186.512 141.397 186.62 141.393C187.132 141.37 186.651 140.966 187.081 140.851C188.753 140.378 189.987 140.743 191.648 139.489C191.939 139.282 192.821 137.552 194.105 137.873C194.297 137.917 194.182 138.579 194.889 138.311C195.952 137.921 197.697 136.818 198.487 135.875C199.068 135.187 197.749 135.231 198.734 134.684C199.171 134.431 198.85 135.432 199.654 134.908C200.472 134.399 202.051 132.538 202.571 131.773C203.106 131.021 202.28 131.046 202.29 130.96C202.362 130.457 203.051 128.858 203.126 128.723C204.942 125.778 206.521 122.748 208.096 119.632C210.158 115.592 213.009 112.441 214.225 108.531C214.395 107.979 213.621 108.113 213.64 108.027C213.687 107.783 213.742 107.606 213.811 107.476C214.274 106.546 215.367 107.981 216.218 106.889C214.818 106.735 215.313 105.993 215.394 104.578C215.423 103.904 214.835 104.188 214.791 104.12C214.118 103.072 215.188 102.525 215.414 102.337C216.237 101.703 215.286 100.971 215.788 100.513C216.28 100.012 217.144 101.064 217.018 99.6276C216.485 99.2937 215.299 100.411 214.983 99.4395C214.26 96.6383 212.414 92.5687 211.585 88.0528C211.437 86.6146 211.658 85.406 211.84 84.546C212.759 81.0189 213.3 80.1563 214.194 78.4231C215.891 75.3905 214.508 76.1584 214.939 74.047C215.345 71.9436 217.137 73.781 217.726 73.6928C218.316 73.5928 217.949 73.1036 218.35 72.8512C218.75 72.5977 218.768 73.4998 219.196 72.6934C219.629 71.9034 219.6 69.2701 219.178 68.8202C218.308 67.8412 216.875 68.4888 217.941 66.4502C218.003 66.3296 218.474 66.9239 218.681 66.4517C220.292 62.7274 221.13 58.6165 222.012 54.605C222.133 54.0647 222.766 54.6322 222.844 54.3155C223.627 50.9327 222.334 52.0623 221.174 50.1235C222.591 50.549 223.619 49.9935 223.98 48.2079C224.05 47.8517 224.089 47.47 224.093 47.0246C224.087 45.4106 223.326 45.7035 222.736 44.741C222.56 44.4563 222.959 43.3143 222.575 43.1562C221.321 42.6841 220.253 43.8279 220.284 41.3427C220.283 41.231 220.979 41.4319 220.933 41.0536C220.554 38.5802 219.308 38.6705 218.119 36.4275C217.486 35.2653 216.705 33.4135 215.755 31.5212C215.572 30.9816 215.022 30.3986 214.422 30.0244C215.494 28.3375 213.003 27.7096 211.786 28.8242C210.339 28.3592 208.642 28.1522 207.152 27.7885C206.627 27.6634 207.04 27.1463 206.98 27.0781C206.058 26.0148 205.196 27.254 204.869 27.2792C201.097 27.4985 198.009 26.5134 194.385 27.5497C194.255 27.5878 194.088 28.9378 193.094 27.982C193.027 27.9164 194.214 27.2668 192.498 27.2717C190.795 27.2749 187.522 26.7047 185.179 27.4761C184.611 27.6605 183.23 28.844 182.006 28.0712C181.843 27.9661 181.987 27.5687 181.747 27.3695C180.97 26.736 180.674 28.1224 179.734 27.0298C178.794 25.937 176.95 25.204 174.603 26.1869C174.53 26.2159 174.044 27.3366 173.284 27.3785C172.087 27.4435 170.347 27.3535 169.087 27.4559C168.489 27.5049 168.922 28.1445 168.819 28.1646C167.478 28.3906 166.253 28.4972 165.081 28.5347C163.729 28.6204 162.205 28.0303 161.423 26.8457C160.63 25.6946 160.384 24.339 160.221 22.8767C160.111 22.0986 159.026 19.8012 159.738 18.2275C160.504 16.4978 163.824 18.2809 162.995 14.3115C162.822 13.4949 161.677 12.5708 160.77 11.5587C159.806 10.4856 159.372 9.66213 159.49 7.77081C159.428 7.69322 159.364 7.61874 159.297 7.54765C157.656 5.78527 155.312 5.52952 153.336 5.4455C150.028 5.30822 146.661 5.87296 143.633 7.47243C143.406 7.58982 143.084 8.95763 142.561 9.15576C141.769 9.45313 141.119 9.14613 140.544 9.36701C138.123 10.2937 136.268 11.8382 134.114 13.0522C133.296 13.5201 133.281 12.8652 132.306 13.4413C131.332 14.0252 131.115 15.0508 129.656 15.6158C128.558 16.041 126.724 15.4813 125.366 16.2696C126.212 17.5063 125.339 18.1049 124.106 19.5714C123.871 19.8527 124.494 20.0252 124.401 20.1791C124.033 20.8089 123.255 20.8795 122.938 21.5127C122.861 21.6659 123.176 22.0678 123.13 22.2168C122.752 23.4911 120.644 23.7721 120.272 23.8309C118.866 24.0384 118.874 24.9186 118.001 25.2968C117.106 25.6974 117.896 24.4855 116.963 25.0807C115.043 26.3036 113.015 28.3434 111.4 29.9816C111.36 30.0223 111.327 30.0601 111.3 30.0954C111.274 30.1209 111.213 30.2053 111.194 30.2363C110.925 30.852 111.706 30.6896 111.658 30.8012C110.875 32.5157 109.278 33.7462 109.878 35.3465C106.212 34.5738 109.582 36.4947 107.493 38.3578C107.327 38.5016 105.809 37.7843 106.051 36.9893C106.29 36.1982 107.387 35.466 107.654 34.3249C107.722 34.0532 107.179 31.9668 107.198 31.7483C107.381 30.0175 109.628 31.0755 109.791 31.0707C110.487 31.0344 110.826 30.6264 110.988 30.118C111.013 30.0766 111.094 29.9641 111.129 29.9301C111.55 29.2448 111.674 28.2193 111.851 27.9452C113.085 25.9758 114.763 24.8932 115.922 23.3418C116.679 22.3368 115.72 21.018 116.491 20.4136C119.122 18.3712 121.404 19.436 122.642 15.9817C122.916 15.2481 121.304 14.2238 124.081 13.8967C124.258 13.8722 126.44 13.8618 126.825 12.6137C126.873 12.4557 126.574 12.0332 126.691 11.8994C127.483 11.011 128.355 10.9205 129.309 10.0679C130.264 9.21556 131.422 8.15417 132.783 7.57393C133.606 7.21857 135.063 7.52302 135.542 7.53707C136.891 7.5875 137.542 6.02576 138.567 6.45696C139.579 6.9026 138.837 8.61941 140.753 8.34127C140.272 7.08323 139.866 5.754 139.44 4.46429C143.515 2.77364 147.945 1.80148 152.836 1.62851C153.399 1.61395 152.896 0.99481 153.353 0.881563C153.387 0.872942 153.426 0.867485 153.472 0.865809C155.793 0.788314 159.744 1.41921 162.626 4.85467C163.003 5.30492 163.328 5.81214 163.556 6.21954C165.294 9.72751 165.742 11.7932 166.081 13.9268C164.581 15.2397 165.071 18.0423 165.027 19.825C165.014 20.449 164.603 20.4338 164.504 20.8758C164.178 22.5084 165.455 21.5791 165.716 21.9289C166.292 22.5947 165.838 22.8949 165.325 23.3715C164.785 23.797 164.349 24.4764 164.395 24.4513C164.401 24.4555 164.6 24.0828 164.632 23.6493C164.675 23.2213 164.654 22.7846 164.659 22.7338C164.66 22.6598 164.668 22.6091 164.678 22.5771C165.484 22.2724 164.674 23.32 165.503 23.3707C167.23 23.4715 168.433 23.7735 170.416 23.1387C170.987 22.9519 172.319 21.8223 173.527 22.5219C173.686 22.6134 173.644 23.1607 173.769 23.1829C175.996 23.5414 175.929 21.8378 177.143 21.1673C178.361 20.4964 180.399 21.53 180.817 21.8414C181.916 22.6443 180.048 22.2707 180 22.3611C179.415 23.43 180.816 23.1521 181.91 23.1651C182.18 24.821 183.685 24.6218 183.04 23.1731C182.967 23.0149 182.133 23.2263 181.91 23.1651C182.749 21.4651 184.425 21.1439 186.363 22.5697C187.272 23.2404 186.494 24.1135 189.107 23.6788C190.294 23.4864 189.777 22.3573 190.83 22.0003C193.233 21.1863 196.437 22.1871 198.968 22.0459C199.89 21.9948 199 21.3543 199.631 21.2989C201.327 21.1545 202.797 21.6773 204.536 21.5491C204.695 21.5372 204.353 20.8527 204.896 20.8819C209.065 21.2277 212.529 21.6509 217.735 24.279C218.76 24.8832 220.308 25.755 221.681 27.7263C222.579 28.9301 223.738 30.5478 224.347 31.79C226.281 35.4458 226.726 40.7186 227.16 44.0392C227.465 46.2486 228.066 45.7402 228.538 46.7104C228.766 47.1996 228.821 47.786 228.761 48.3982C228.6 49.9921 227.575 51.6253 227.371 51.9134C227.365 51.9296 227.331 50.1497 226.929 51.071C226.188 51.566 227.37 51.8917 227.371 51.9134C227.212 52.161 226.723 55.6125 226.737 56.3362C226.756 56.7197 227.403 56.5917 227.401 56.7909C227.333 61.5587 226.419 66.3956 224.579 70.9295C224.54 71.0061 223.918 70.6623 223.835 70.8435C222.646 73.3596 222.762 75.3335 222.342 77.6127C221.916 79.8827 221.052 81.3542 219.49 81.9633C219.012 83.4281 217.896 84.9959 217.485 85.7056C217.051 86.4799 218.462 86.5145 218.479 86.5516C218.575 86.6809 218.659 86.7703 218.731 86.8503C219.317 87.694 220.087 90.4228 221.141 94.2517C221.798 96.3252 222.597 100.961 222.435 103.491C222.382 105.491 221.844 106.594 221.608 108.348C221.573 108.588 222.221 108.507 222.224 108.585C222.377 110.715 221.212 109.362 220.846 109.672C220.837 109.679 220.829 109.686 220.82 109.693C219.445 110.825 218.698 111.426 218.072 113.685C217.936 114.195 219.061 116.583 218.7 117.443C218.243 118.54 217.801 117.779 217.369 118.877C217.334 118.967 217.744 119.198 217.382 119.776C216.681 120.903 216.031 121.94 215.542 122.896C214.649 124.712 213.683 126.715 212.701 128.716C212.467 129.187 213.443 128.92 213.108 129.615C211.536 132.88 209.199 136.505 206.272 139.147C205.551 139.792 205.582 138.989 205.327 139.034C203.813 139.285 203.417 141.47 203.178 141.697C198.606 146.298 193.049 147.611 187.282 148.584C186.719 148.686 186.081 148.835 185.394 149.027C185.125 149.105 182.932 150.982 181.547 149.927C181.449 149.858 180.131 148.768 179.212 149.776C179.151 149.838 179.985 150.399 178.679 150.499C177.382 150.597 175.233 151.251 173.287 150.561C172.657 150.344 171.306 149.094 169.409 149.973C169.351 150.068 166.006 152.013 165.194 150.17C165.067 149.858 165.625 148.329 163.187 148.544C162.707 148.571 163.39 149.184 162.165 149.039C160.256 148.796 158.15 147.366 155.754 146.668C155.408 146.579 153.768 146.484 152.938 145.407C152.837 145.257 152.76 145.082 152.719 144.877C152.676 144.662 153.287 144.441 152.89 144.022C151.015 142.033 148.64 140.388 146.939 138.239C146.328 137.47 147.32 137.157 146.767 136.29C146.222 135.431 144.963 133.879 143.955 133.482C142.947 133.087 142.719 134.882 141.579 133.948C140.45 133.028 139.357 132.08 138.663 131.553C138.358 131.298 138.047 131.191 138.664 131.419C138.971 131.514 139.685 131.728 140.774 131.602C141.865 131.495 143.02 130.888 143.533 130.415C143.415 130.347 142.113 131.723 141.068 132.989C139.953 134.313 138.738 135.813 137.392 137.352C136.629 138.208 137.671 137.824 136.506 139.128C134.138 141.757 129.265 146.489 122.406 147.177C119.37 147.483 116.473 147.573 114.426 147.275C110.569 146.702 115.256 145.65 112.359 145.519C110.953 145.457 109.563 147.239 109.228 147.314C105.958 148.06 103.615 147.416 100.637 147.728C100.021 147.792 100.645 148.46 100.118 148.506C98.315 148.668 96.4118 148.382 94.6803 148.429C93.9019 148.451 94.0406 148.975 93.3224 148.926C91.6044 148.813 90.0771 148.551 88.4197 147.987C88.2697 147.935 89.3255 147.333 88.0581 147.251C85.9973 147.116 83.482 146.456 81.0336 146.685C80.3034 146.752 80.142 147.944 78.6841 146.918C78.376 146.698 79.0154 145.355 77.0205 146.301C76.7127 146.473 73.2835 147.566 71.9552 146.113C71.6111 145.74 70.873 144.343 69.9471 144.26C69.8148 144.251 70.1302 145.015 69.3541 144.847C66.6314 144.215 63.8143 143.098 60.7551 141.184C59.9387 140.65 60.7221 142.072 59.4979 141.213C59.4427 141.172 59.3874 141.132 59.3322 141.09C57.167 139.536 54.5701 137.196 52.5676 134.916C51.8192 134.056 52.7664 134.227 52.7492 134.125C52.5294 132.519 51.0385 132.805 50.6644 132.492C48.4103 130.538 47.4252 128.09 46.1316 124.974C45.7898 124.09 45.4066 124.919 45.2935 124.755C44.1934 122.918 45.6857 124.097 45.5065 122.829C45.4041 121.93 45.3411 120.997 45.3382 120.053C45.3688 118.084 45.3577 116.069 45.4207 114.213C45.4538 113.302 44.6557 114.275 44.6981 113.451C44.9514 108.562 46.0499 103.698 47.7096 99.4637C48.0249 98.6672 48.4088 99.3419 48.5815 99.2085C49.7781 98.3095 49.172 96.2669 49.1995 95.8369C49.3078 93.902 50.0284 93.3905 50.5334 91.8381C50.7049 91.3156 50.8868 90.7895 51.0777 90.2632C51.1597 90.0199 51.2083 89.833 51.2017 89.8024C51.2005 89.7769 51.1173 89.9018 51.0763 90.4548C51.0292 90.974 51.1466 92.123 51.7055 93.1107C52.2489 94.0999 52.9287 94.6183 53.2411 94.827C53.9006 95.224 53.6497 95.0256 53.2803 94.9635C52.8907 94.8725 52.3024 94.7731 51.6719 94.6935C47.4024 94.1599 43.1293 93.576 39.4268 93.0789C30.0084 91.4315 24.4115 92.0275 12.4922 87.0843C11.5447 86.4794 12.1161 87.7592 11.2227 87.1573C10.8273 86.877 10.3291 86.4759 9.88365 86.0339C4.91903 80.4593 0.0273359 75.0004 1.17989 63.8169C1.38046 62.8882 0.350481 64.0875 0.704796 62.5386C1.08586 61.0018 1.84739 59.2841 2.88511 57.8346C3.50731 56.9737 4.20481 56.1235 4.8573 55.4413C5.4694 54.8023 5.24852 56.1088 5.85658 55.4581C7.27382 53.9495 8.66454 52.2833 9.91552 50.6107C10.4508 49.8951 9.02875 50.4665 9.77483 49.5668C14.8217 43.517 20.2437 37.813 27.3609 33.5126C27.8503 33.2214 29.1207 34.0934 29.914 33.1755C29.7496 32.7927 29.4674 32.4062 29.2467 32.0294C35.4249 27.571 42.8721 23.2431 52.7155 23.6159C57.2811 23.9612 61.0862 24.7238 65.0271 25.4234C65.4914 25.5088 64.8203 24.6008 65.725 24.7637C70.9183 25.7068 75.9491 26.5304 80.9799 28.4392C81.4801 28.6286 80.9196 29.9018 82.4783 30.0422C82.7542 30.0647 85.0768 30.411 85.7337 30.2615C85.8241 30.2367 85.5526 29.518 86.2927 29.6722C90.5941 30.5814 95.0323 31.833 99.1842 33.3433C99.8478 33.5869 98.949 34.0497 99.4186 34.2287C102.799 35.5079 106.665 36.0649 109.843 37.7212C111.929 38.8297 110.764 39.6896 111.541 41.1707C111.677 41.3866 112.979 41.8757 112.842 42.5454C112.435 44.1967 111.156 45.7013 110.805 47.4915C110.763 47.8833 112.456 48.0819 111.21 48.6103C111.136 48.6456 109.836 48.5021 109.442 48.705C109.163 48.8409 109.31 49.6159 108.796 49.7359C108.261 49.8492 108.036 49.1672 107.196 49.2405C106.385 49.331 106.48 50.1737 105.014 49.8112ZM216.854 89.7868C216.705 91.1538 218.988 90.4123 217.965 89.4218C217.914 89.3772 216.861 89.719 216.854 89.7868ZM148.412 3.9795C150.305 4.68963 151.363 3.06535 149.963 2.39881C148.514 1.76808 147.806 3.7786 148.412 3.9795ZM132.579 11.5278C134.655 11.2448 133.226 8.15132 131.744 9.8401C131.658 9.9383 132.457 11.546 132.579 11.5278ZM106.063 39.7745C106.062 39.8067 107.038 40.1335 107.07 40.1109C107.814 39.5418 105.869 38.8902 106.063 39.7745ZM119.468 22.221C120.209 22.1877 121.194 20.6799 120.26 20.7147C119.495 20.7496 118.535 22.2663 119.468 22.221ZM186.845 142.54C186.833 142.524 186.641 142.536 186.458 142.574C186.288 142.611 186.124 142.678 186.145 142.776C186.199 143.018 186.37 143.121 186.533 143.127C186.827 143.134 187.105 142.876 186.845 142.54ZM101.759 44.6116C102.152 43.7342 102.726 43.0116 103.315 42.5331C103.321 42.5253 103.338 42.5021 103.344 42.4948C105.456 41.1057 107.296 41.3403 105.056 43.9204L105.166 43.7734C105.121 43.8333 105.075 43.8945 105.026 43.9583C104.848 44.1995 104.821 43.9145 104.823 43.5438L104.739 43.6565C104.84 43.1114 104.952 42.4341 104.457 42.8193C104.329 42.917 104.211 43.0246 104.108 43.1314L104.142 43.0869C103.122 44.4307 104.079 45.973 102.696 47.383C102.414 47.6687 101.603 44.8742 101.758 44.6029C101.759 44.6058 101.759 44.6087 101.759 44.6116ZM214.457 91.5206C214.437 91.5551 214.788 92.4925 214.823 92.4999C215.733 92.7176 215.028 90.8275 214.457 91.5206ZM149.922 130.425C149.921 130.332 148.318 128.686 148.212 128.672C146.482 128.724 149.748 132.075 149.922 130.425ZM214.419 29.9637C213.274 30.2019 212.324 29.973 211.79 28.8263C212.746 29.1492 213.647 29.4862 214.419 29.9637Z" fill="black"/>
</svg>
