<svg width="508" height="80" viewBox="0 0 508 80" fill="none" xmlns="http://www.w3.org/2000/svg">
<path d="M0.976548 48.5945C1.97571 45.072 4.01346 41.0618 5.76872 38.1887C6.31735 37.2884 6.46127 37.9555 6.8594 37.3457C7.6351 36.1643 8.05564 34.9002 8.87577 33.7775C9.15132 33.4037 9.47498 34.2237 9.74978 33.8263C11.2428 31.6679 12.3055 29.433 13.7576 27.2399C15.6414 24.397 17.5451 21.6145 19.4863 18.859C25.8931 9.27707 37.0394 6.84744 44.1412 3.52917C44.5667 3.32503 44.9928 3.14287 45.4162 2.97861C50.5097 1.08766 55.915 1.41128 60.442 0.971896C60.9681 0.925391 60.6384 0.34488 60.7376 0.293518C62.3103 -0.485676 61.8088 0.716775 62.8325 0.864213C65.3949 1.23953 68.0895 1.47725 70.6968 1.6141C72.5948 1.70758 74.4634 2.08085 76.1404 2.64691C78.0378 3.34815 76.6716 1.43968 78.2589 2.93836C78.3618 3.04237 77.626 3.36369 78.0758 3.67538C79.1084 4.36065 80.9974 5.56737 81.6384 6.18997C82.8818 7.37178 83.074 7.563 84.1635 8.67939C85.6339 10.2228 86.9153 12.3058 88.3101 13.9106C88.6101 14.253 88.7585 13.3853 89.283 13.8985C89.8117 14.4153 90.8886 15.9668 91.1354 16.5567C91.3852 17.1499 90.8211 17.2351 90.7939 17.3929C90.6189 18.3354 91.7844 19.0666 92.5212 19.4517C92.8115 19.6047 93.0348 19.7045 93.0879 19.7573C96.4683 23.1388 98.7271 26.5035 102.317 28.9247C105.03 30.751 108.305 31.8906 111.347 32.8089C113.396 33.4391 115.347 33.9946 117.368 34.5061C118.268 34.7702 119.533 34.7489 120.952 34.4047C121.299 34.3203 120.73 33.6774 121.138 33.5727C125.567 32.3475 130.648 29.9111 135.957 28.387C136.492 28.2309 136.072 29.1096 136.62 28.9913C139.989 28.2078 145.387 27.8089 146.629 24.5272C147.466 24.3431 148.367 24.1574 149.293 24.0082C150.925 23.7444 152.53 23.6048 153.922 23.7306C155.303 23.8679 154.145 24.797 155.703 24.2257C156.062 24.099 155.481 23.5509 156.029 23.4089C158.305 22.8178 160.914 22.733 163.218 22.2664C163.686 22.1701 163.53 21.6125 163.661 21.5029C164.792 20.606 166.744 21.9313 167.156 22.0333C170.309 22.7656 172.581 22.6127 175.506 22.9822C176.188 23.0737 175.475 22.2145 176.141 22.2784C179.574 22.6215 183.092 23.4754 186.191 24.8037C186.884 25.1035 186.03 25.5129 186.349 25.6875C187.725 26.4522 188.46 25.4153 189.775 26.1911C190.05 26.3541 189.685 26.8088 189.717 26.8862C190.207 28.0989 191.416 27.1355 191.646 27.1993C194.519 27.9743 195.57 30.0712 198.091 31.2001C198.396 31.3377 198.069 30.3589 198.909 30.7863C203.59 33.1668 208.023 36.3259 212.051 39.3686C212.791 39.93 213.546 40.4742 214.307 40.9978C215.042 41.4978 214.237 41.6594 214.254 41.7426C214.591 43.0804 215.76 42.1383 216.036 42.2175C218.225 42.8863 219.849 44.737 221.859 43.7148C230.883 47.3939 240.854 47.1817 250.724 47.9939C250.851 48.0024 250.669 48.6862 250.923 48.7C253.987 48.8508 253.336 47.8457 255.171 46.3798C255.629 46.0114 257.321 47.3565 257.476 47.4482C258.022 47.7971 257.637 48.8519 257.813 48.9104C259.284 49.3527 258.605 46.1225 260.417 45.8487C260.475 45.8453 260.328 46.4821 260.49 46.5182C260.994 46.6325 261.427 46.319 261.926 46.4481C263.07 46.7458 263.736 48.2608 265.208 47.0341C265.391 46.8742 264.729 45.1041 266.354 44.8686C267.006 44.7822 269.829 44.1308 270.648 44.0526C271.467 43.9817 271.065 44.6974 271.127 44.7095C273.457 44.9629 272.724 45.4795 274.101 46.3479C274.199 46.4089 274.285 46.4522 274.361 46.4797C275.332 46.8472 274.514 44.5392 274.869 44.1535C275.256 43.7328 277.047 44.0216 277.485 44.1776C277.928 44.3265 277.5 44.7971 277.879 44.8576C280.358 45.2813 278.682 43.306 279.407 42.7371C281.171 41.4091 282.906 43.3281 284.598 43.4315C285.063 43.4608 284.66 43.0082 285.072 42.9427C286.717 42.7003 287.7 43.3327 289.578 42.7822C289.876 42.6898 291.475 41.5017 292.402 42.4929C292.53 42.6352 292.103 43.1222 292.789 43.2906C293.814 43.5399 295.652 43.85 296.779 43.8318C297.612 43.817 296.791 42.8396 297.788 43.2496C298.228 43.4342 297.311 43.803 298.138 44.1093C298.962 44.4097 301.121 44.7659 301.938 44.9145C302.758 45.0582 302.438 44.3351 302.512 44.3052C302.96 44.1363 304.601 44.1648 304.74 44.1989C307.361 44.7446 309.836 45.5127 312.254 46.3353C317.002 48.0446 319.643 51.5452 323.189 53.8663C323.625 54.1651 323.76 53.4082 323.831 53.4482C325.433 54.2914 323.206 54.9006 323.888 56.1493C324.548 54.9136 325 55.5666 326.141 56.1345C326.69 56.4021 326.702 55.77 326.779 55.7543C327.953 55.5398 327.925 56.7363 327.964 57.0086C327.97 57.0583 327.979 57.1043 327.989 57.1469C328.153 57.9275 329.007 57.4048 329.147 57.9886C329.35 58.6143 328.173 59.0459 329.381 59.4302C329.833 59.0453 329.41 57.5731 330.263 57.5983C333.305 57.7143 339.92 58.3906 342.781 58.3368C345.628 58.2775 346.546 58.1124 348.22 58.1738C351.251 58.276 350.075 57.3973 351.907 56.8165C352.35 56.6754 352.65 56.7108 352.848 56.853C353.447 57.2983 353.096 58.7811 353.327 59.1497C353.628 59.6363 353.875 59.0916 354.23 59.3436C354.584 59.5956 353.896 59.9982 354.68 60.0401C355.453 60.0837 357.497 59.0026 357.723 58.4486C358.201 57.2759 357.147 56.1802 359.224 56.4168C359.343 56.4313 359.019 57.0843 359.47 57.108C363.08 57.2732 366.794 56.9696 370.389 57.0951C370.884 57.1132 370.503 57.8398 370.792 57.8582C373.796 58.0554 372.643 56.9793 374.17 55.5569C373.939 57.307 374.922 58.2851 377.176 58.1281C378.526 58.0361 378.242 57.3014 379.082 56.7095C379.333 56.5311 380.329 56.9819 380.48 56.6167C380.978 55.423 379.983 54.1853 382.356 54.5517C382.46 54.5698 382.173 55.2232 382.53 55.2394C384.832 55.3516 385.037 54.1244 387.516 53.8524C389.461 53.6383 392.959 54.2433 395.18 54.3176C395.18 56.2569 397.246 55.7709 398.083 54.4268C399.525 54.4657 401.086 54.389 402.475 54.5889C402.956 54.6572 402.633 55.2155 402.693 55.2769C403.606 56.2399 404.243 54.9519 404.561 54.9077C407.189 54.5821 409.41 55.1901 411.795 55.1549C412.493 55.1459 413.192 55.0832 413.937 54.9326C414.052 54.9086 414.37 53.5813 415.138 54.6454C415.186 54.7187 414.068 55.2231 415.571 55.4215C417.087 55.6195 419.817 56.6887 421.988 56.4093C422.513 56.3394 423.979 55.4737 424.855 56.5055C424.969 56.6446 424.751 56.9975 424.907 57.245C425.402 58.0345 426.018 56.765 426.527 58.0469C427.043 59.3312 428.353 60.4816 430.565 60.1877C430.634 60.1803 431.368 59.2446 432.011 59.4221C433.027 59.7021 434.43 60.3041 435.487 60.5924C435.999 60.7312 435.853 59.9944 435.945 60.0074C439.483 60.6173 441.74 61.9626 445.252 63.4377C445.891 63.7071 448.097 63.5108 449.125 64.6491C450.25 65.8955 447.701 68.4725 451.165 68.8947C452.324 69.0379 454.637 66.7698 456.293 67.6307C456.655 67.7853 456.995 68.0707 457.304 68.5359C462.072 69.2874 466.061 71.4721 470.953 71.8327C471.178 71.8506 472.074 70.8623 472.582 70.994C473.32 71.1886 473.6 71.8088 474.108 71.9578C476.292 72.6061 478.398 72.5617 480.508 73.024C481.325 73.1994 480.944 73.7041 481.897 73.9026C482.883 74.1028 483.618 73.4746 484.897 74.0281C485.836 74.4423 486.651 76.0862 487.991 76.4167C488.203 74.9334 489.124 75.0811 490.791 74.8199C491.105 74.7677 490.816 74.223 490.966 74.1714C491.577 73.9497 492.105 74.416 492.687 74.1532C492.83 74.0902 492.861 73.5804 492.977 73.4996C493.933 72.7981 495.47 73.9611 495.741 74.1547C496.795 74.9052 497.266 74.2213 498.07 74.4784C498.891 74.7286 497.71 75.1762 498.664 75.2976C500.66 75.5512 503.186 75.0961 505.141 74.7384C505.923 74.5951 505.261 74.0276 505.37 73.9916C505.472 73.9607 505.574 73.9333 505.676 73.9088C507.18 73.6149 508.731 73.9807 509.426 72.6196C510.955 75.9781 510.367 72.1608 512.777 72.6197C512.967 72.6578 513.362 74.2864 512.688 74.5996C512.016 74.9126 510.902 74.5088 509.981 74.9989C509.76 75.1128 508.651 76.8159 508.493 76.933C507.225 77.8411 506.69 75.4185 506.593 75.2933C506.347 74.976 506.079 74.8416 505.815 74.8236L505.854 74.8168C504.988 74.7993 504.147 75.9626 503.827 76.1052C501.924 76.9683 500.133 76.8226 498.449 77.3039C497.344 77.6107 497.273 79.2352 496.363 79.2055C493.287 79.0609 492.466 76.7299 489.549 78.4595C488.932 78.8188 489.329 80.6588 487.357 79.0332C487.223 78.9312 485.853 77.4751 484.835 78.1422C484.711 78.2274 484.641 78.7403 484.489 78.7622C483.462 78.8961 482.861 78.3844 481.755 78.3998C480.652 78.415 479.304 78.4711 478.135 78.0663C477.397 77.8178 476.692 76.6917 476.385 76.3875C475.513 75.5151 474.297 76.3949 473.844 75.4529C473.415 74.5111 474.839 73.5379 473.413 72.6749C473.063 73.9749 472.629 75.2925 472.238 76.5911C468.759 75.7622 465.468 74.5016 462.016 73.6643C461.584 73.5606 461.842 74.3754 461.372 74.2813C459.417 73.8878 457.862 72.9355 455.823 72.587C455.542 72.5391 455.25 72.5071 454.949 72.4852C454.88 72.4638 454.672 72.4024 454.605 72.3762C453.226 72.181 451.693 72.2077 450.356 71.8913C449.929 70.0988 447.458 69.7557 445.85 69.0391C445.283 68.7872 445.463 68.4151 445.093 68.1434C443.696 67.1316 443.984 68.6727 443.488 68.7276C441.376 68.9722 442.201 65.9973 439.999 65.3675C439.882 65.3316 437.984 66.4564 437.77 66.4995C436.357 66.7657 437.736 65.8912 437.002 65.543C435.669 64.9147 434.791 64.2536 433.01 64.2737C432.491 64.2819 431.09 64.9739 430.343 63.9786C430.244 63.8478 430.441 63.3375 430.348 63.2822C428.663 62.3343 428.231 63.992 427.086 64.3303C425.954 64.6721 424.608 63.2086 424.336 62.8142C423.648 61.7919 425.062 62.57 425.124 62.4967C425.868 61.5996 424.653 61.5368 423.772 61.2901C423.942 59.6206 422.641 59.4953 422.85 61.0419C422.871 61.21 423.606 61.1816 423.772 61.2901C422.677 62.757 421.317 62.7327 420.007 60.9907C419.39 60.178 420.197 59.4345 417.943 59.4454C416.924 59.4571 417.166 60.6459 416.257 60.8555C414.761 61.202 413.067 60.6271 411.427 60.3023C410.798 60.1761 410.172 60.0864 409.584 60.1006C408.828 60.1204 409.526 60.7893 409.01 60.8253C407.636 60.9248 406.442 60.4066 405.057 60.6126C404.931 60.6321 405.219 61.2988 404.791 61.2966C401.544 61.2978 398.704 60.8844 395.274 60.949C393.617 60.9781 390.666 61.446 388.944 61.4547C385.961 61.465 382.219 60.7329 379.672 61.1451C378.012 61.4109 378.424 62.0439 377.744 62.5437C376.43 63.5118 373.866 62.1487 373.519 61.9349C373.508 61.9275 374.932 61.6589 374.138 61.3821C373.636 60.7143 373.536 61.9305 373.519 61.9349C373.287 61.7956 370.395 61.8832 369.838 62.058C369.531 62.1531 369.759 62.7609 369.598 62.7987C365.797 63.6816 361.942 64.1918 357.977 64.239C357.906 64.2325 357.952 63.5271 357.785 63.5204C356.01 63.4319 354.759 63.9874 353.442 64.5427C353.042 64.7094 352.64 64.8761 352.221 65.0255C350.379 65.6753 348.856 65.6169 347.652 64.4989C346.236 64.7514 344.134 64.3558 342.922 64.0985C341.721 63.8414 341.605 65.2057 341.504 65.238C338.187 66.2255 336.242 65.5755 332.348 65.1463C330.755 64.9599 327.228 64.5914 324.543 63.1448C324.293 63.0221 324.061 62.9066 323.851 62.8017C322.446 62.0918 321.853 61.305 320.605 60.6664C320.436 60.579 320.237 61.1817 320.177 61.1671C318.484 60.831 319.974 60.0809 319.876 59.6814C319.551 58.2335 319.331 57.415 317.634 56.634C317.242 56.4522 314.979 57.3666 314.369 57.048C313.579 56.634 314.299 56.2203 313.486 55.8454C313.419 55.816 313.146 56.1956 312.753 55.8915C311.669 55.0571 310.775 54.459 310.114 54.2073C308.944 53.834 307.771 53.4908 306.613 53.221C306.224 53.1289 306.539 53.9777 305.977 53.858C303.346 53.2976 300.533 52.6637 298.095 51.9062C297.495 51.7177 297.964 51.2644 297.855 51.089C297.169 50.0226 295.795 51.2123 295.609 51.2157C291.013 51.2966 287.618 49.9262 283.132 50.9219C282.872 50.9744 281.233 52.6427 280.226 51.5447C280.163 51.4695 279.104 50.3407 278.539 51.3504C278.506 51.4137 279.139 51.9603 278.245 52.0728C277.636 52.1518 276.841 52.525 275.962 52.6488C275.466 52.7279 274.95 52.7424 274.433 52.6307C273.919 52.5224 272.553 51.5395 271.427 52.8445C271.368 52.9348 269.726 55.665 268.637 54.2557C268.46 54.0224 268.253 52.3499 266.79 53.518C266.509 53.7428 267.151 54.0037 266.367 54.3924C265.158 54.9907 263.395 54.8405 261.934 55.8249C261.681 55.9993 260.658 57.3116 259.589 56.577C259.422 56.462 259.629 55.8661 259.121 55.8701C256.717 55.8829 254.249 56.5166 251.785 56.2984C250.914 56.2204 251.293 55.2833 250.391 55.0937C249.481 54.9061 247.693 54.7471 246.766 55.1827C245.838 55.6191 246.901 57.0528 245.476 57.191C239.244 57.7661 233.012 56.4454 226.829 55.0297C225.91 54.8142 226.57 55.494 225.193 55.1928C220.152 54.2393 211.22 51.2232 207.864 47.6394C207.562 47.3377 207.353 47.0904 207.212 46.8893C206.607 45.9421 207.522 46.0583 207.849 45.8991C207.928 45.865 207.973 45.8147 207.957 45.7309C207.939 45.6049 207.786 45.4063 207.403 45.0721C206.475 44.2659 204.469 44.9669 204.202 44.856C201.561 43.7712 200.386 42.1119 198.205 41.0445C197.755 40.826 197.814 41.663 197.44 41.474C196.156 40.8338 195.028 39.8283 193.826 39.2381C193.285 38.9751 193.139 39.4899 192.677 39.1993C191.563 38.511 190.648 37.8142 189.704 36.8423C189.615 36.7529 190.603 36.4896 189.728 36.0637C188.327 35.387 186.693 34.2016 184.836 34.0937C184.286 34.0665 183.904 35.1895 183.084 34.0686C182.912 33.8384 183.614 32.5413 181.995 33.3641C181.703 33.4863 179.23 34.5648 178.426 33.3106C178.208 32.9745 177.727 31.6809 177.059 31.7515C176.969 31.7658 177.196 32.456 176.67 32.4284C174.842 32.3273 172.918 32.0366 171.036 32.1233C170.528 32.1484 171.239 32.8537 170.488 32.8726C168.456 32.9268 165.912 32.7795 163.857 32.7058C163.113 32.6761 163.586 32.0943 163.53 32.0379C162.58 31.1264 162.145 32.4865 161.861 32.5893C160.108 33.2161 158.653 32.7869 156.974 33.2233C156.518 33.3423 156.949 33.9061 156.866 33.9764C156.022 34.6731 156.532 33.4447 155.909 33.4276C154.5 33.3949 153.046 33.6658 151.618 34.0392C151.261 34.133 150.912 34.2331 150.572 34.3351C149.971 34.5183 150.834 35.0484 150.292 35.2062C147.111 36.1524 143.777 37.2256 140.436 38.111C139.805 38.2772 139.979 37.6077 139.806 37.5385C138.607 37.0506 137.771 38.711 137.523 38.9399C136.374 39.9896 135.661 39.7557 134.47 40.3567C129.925 42.2398 125.108 46.0402 115.259 44.7046C113.554 44.2999 111.852 43.8637 110.234 43.388C101.563 40.9553 94.8077 36.157 88.9818 30.0552C88.6016 29.6588 88.4338 30.5714 88.0983 30.2331C86.7017 28.8022 85.4448 27.2967 84.278 25.7595C81.9649 22.702 80.0495 19.7729 77.9199 17.4965C77.6645 17.2233 77.4762 18.0857 77.0538 17.6727C76.1842 16.8293 75.2497 15.8202 74.6507 15.0253C74.3523 14.6344 75.2398 14.5849 74.9203 14.1955C74.1706 13.2885 73.2401 12.663 72.3707 12.446C72.0097 12.3616 72.2519 13.2221 71.8364 13.0786C71.2815 12.9018 70.7555 12.8172 70.1685 12.7981C65.216 12.6113 60.3688 12.4811 55.7133 12.2216C55.3196 12.2013 54.7906 10.7824 53.9951 11.1811C53.9921 11.5928 54.0662 12.0657 54.104 12.4997C52.1444 12.8422 50.254 13.3538 49.306 13.8258C41.9556 17.3081 35.7652 18.7257 32.0551 22.2243C31.8462 22.4157 32.7247 22.6541 32.3397 23.0169C31.4817 23.84 30.7766 24.7472 30.1205 25.7457C28.6815 27.9471 27.2066 30.114 25.4084 32.2032C25.1178 32.5439 24.0595 31.6447 23.5717 32.879C23.486 33.0946 22.6579 34.8847 22.6666 35.4746C22.6718 35.5561 23.4013 35.5631 23.1076 36.1177C21.3901 39.3417 19.4833 42.629 17.5979 45.6992C17.2937 46.1931 16.9414 45.3479 16.7195 45.6981C15.1386 48.2117 14.3901 51.3098 12.9803 53.6135C12.0486 55.161 11.1272 54.1953 9.74829 54.8147C9.54728 54.9109 9.25212 55.9999 8.58903 55.911C6.90069 55.7106 5.23132 54.701 3.41791 54.5464C3.01805 54.494 3.05586 56.479 2.35352 55.1772C2.30074 55.0812 2.30767 53.6343 2.0897 53.2393C1.93711 52.9527 1.16441 53.2025 1.01876 52.6499C0.877317 52.0904 1.57394 51.7278 1.48824 50.8857C1.41047 50.0264 0.55143 50.1171 0.976548 48.5945ZM337.45 62.8582C336.323 62.212 336.146 64.6039 337.385 64.0259C337.446 63.9948 337.509 62.8896 337.45 62.8582ZM465.934 72.741C464.82 71.3741 463.45 72.6228 464.25 73.6689C465.048 74.712 466.273 73.1553 465.934 72.741ZM480.582 75.1726C479.085 74.0517 478.191 77.335 480.103 76.9913C480.216 76.9725 480.671 75.2377 480.582 75.1726ZM10.8974 50.3094C10.8626 50.3076 10.5328 51.1025 10.5584 51.1284C11.1159 51.8091 11.7607 50.2533 10.8974 50.3094ZM495.369 75.9016C494.837 75.4477 493.329 75.9336 493.965 76.5225C494.485 77.0024 496.032 76.4734 495.369 75.9016ZM284.711 44.595C284.692 44.5594 284.066 44.5669 284.092 44.7679C284.18 45.4109 285.023 45.1772 284.711 44.595ZM520.064 73.2412C516.414 73.421 513.938 70.8351 517.954 70.7971C518.68 70.7915 516.477 71.8227 517.417 71.9945C519.133 72.3072 520.099 70.4611 521.889 71.2579C522.212 71.4041 520.273 73.2369 520.058 73.2456C520.06 73.2441 520.062 73.2427 520.064 73.2412ZM336.796 59.988C336.776 59.9579 335.903 59.9227 335.884 59.9522C335.396 60.7084 337.173 60.7816 336.796 59.988ZM248.468 48.7726C248.42 48.712 246.421 48.7149 246.359 48.7735C245.333 50.0495 249.421 50.0495 248.468 48.7726ZM395.216 54.3685C396.153 53.5824 397.308 53.474 398.079 54.4258C397.129 54.3851 396.171 54.3939 395.216 54.3685Z" fill="black"/>
</svg>
